REM DIRINDEX 1\5,1\2\6,1\2\7,1\3\8,1\3\9,1\4\10,1\4\11,1\4\12
REM DIRNAME cjc026,folder01,folder02,folder03,folder04,folder05,folder06,folder07,folder08,folder09,folder10,folder11
TITLE ""
FILE "EJE_DB3000_5th_6C_38.mp3" MP3
  TRACK 01 AUDIO
    TITLE "0:"
    INDEX 01 00:00:00
  TRACK 02 AUDIO
    TITLE "10:cjc026_11619"
    INDEX 01 00:00:08
  TRACK 03 AUDIO
    TITLE "0:"
    INDEX 01 00:01:38
  TRACK 04 AUDIO
    TITLE "11:cjc026_11620"
    INDEX 01 00:02:01
  TRACK 05 AUDIO
    TITLE "0:"
    INDEX 01 00:03:04
  TRACK 06 AUDIO
    TITLE "12:cjc026_11621"
    INDEX 01 00:03:39
  TRACK 07 AUDIO
    TITLE "0:"
    INDEX 01 00:04:69
  TRACK 08 AUDIO
    TITLE "10:cjc026_11622"
    INDEX 01 00:05:30
  TRACK 09 AUDIO
    TITLE "0:"
    INDEX 01 00:06:54
  TRACK 10 AUDIO
    TITLE "11:cjc026_11623"
    INDEX 01 00:07:15
  TRACK 11 AUDIO
    TITLE "0:"
    INDEX 01 00:08:50
  TRACK 12 AUDIO
    TITLE "12:cjc026_11624"
    INDEX 01 00:09:10
  TRACK 13 AUDIO
    TITLE "0:"
    INDEX 01 00:10:33
  TRACK 14 AUDIO
    TITLE "10:cjc026_11625"
    INDEX 01 00:10:70
  TRACK 15 AUDIO
    TITLE "0:"
    INDEX 01 00:12:18
  TRACK 16 AUDIO
    TITLE "11:cjc026_11626"
    INDEX 01 00:12:53
  TRACK 17 AUDIO
    TITLE "0:"
    INDEX 01 00:14:13
  TRACK 18 AUDIO
    TITLE "12:cjc026_11627"
    INDEX 01 00:14:48
  TRACK 19 AUDIO
    TITLE "0:"
    INDEX 01 00:15:71
  TRACK 20 AUDIO
    TITLE "10:cjc026_11628"
    INDEX 01 00:16:31
  TRACK 21 AUDIO
    TITLE "0:"
    INDEX 01 00:17:72
  TRACK 22 AUDIO
    TITLE "11:cjc026_11629"
    INDEX 01 00:18:29
  TRACK 23 AUDIO
    TITLE "0:"
    INDEX 01 00:20:12
  TRACK 24 AUDIO
    TITLE "12:cjc026_11630"
    INDEX 01 00:20:44
  TRACK 25 AUDIO
    TITLE "0:"
    INDEX 01 00:22:07
  TRACK 26 AUDIO
    TITLE "10:cjc026_11631"
    INDEX 01 00:22:42
  TRACK 27 AUDIO
    TITLE "0:"
    INDEX 01 00:24:06
  TRACK 28 AUDIO
    TITLE "11:cjc026_11632"
    INDEX 01 00:24:41
  TRACK 29 AUDIO
    TITLE "0:"
    INDEX 01 00:25:69
  TRACK 30 AUDIO
    TITLE "12:cjc026_11633"
    INDEX 01 00:26:29
  TRACK 31 AUDIO
    TITLE "0:"
    INDEX 01 00:27:67
  TRACK 32 AUDIO
    TITLE "10:cjc026_11634"
    INDEX 01 00:28:27
  TRACK 33 AUDIO
    TITLE "0:"
    INDEX 01 00:29:47
  TRACK 34 AUDIO
    TITLE "11:cjc026_11635"
    INDEX 01 00:30:07
  TRACK 35 AUDIO
    TITLE "0:"
    INDEX 01 00:31:32
  TRACK 36 AUDIO
    TITLE "12:cjc026_11636"
    INDEX 01 00:31:64
  TRACK 37 AUDIO
    TITLE "0:"
    INDEX 01 00:33:08
  TRACK 38 AUDIO
    TITLE "10:cjc026_11637"
    INDEX 01 00:33:44
  TRACK 39 AUDIO
    TITLE "0:"
    INDEX 01 00:34:69
  TRACK 40 AUDIO
    TITLE "11:cjc026_11638"
    INDEX 01 00:35:29
  TRACK 41 AUDIO
    TITLE "0:"
    INDEX 01 00:36:40
  TRACK 42 AUDIO
    TITLE "12:cjc026_11639"
    INDEX 01 00:37:00
  TRACK 43 AUDIO
    TITLE "0:"
    INDEX 01 00:38:22
  TRACK 44 AUDIO
    TITLE "10:cjc026_11640"
    INDEX 01 00:38:57
  TRACK 45 AUDIO
    TITLE "0:"
    INDEX 01 00:40:02
  TRACK 46 AUDIO
    TITLE "11:cjc026_11641"
    INDEX 01 00:40:40
  TRACK 47 AUDIO
    TITLE "0:"
    INDEX 01 00:41:73
  TRACK 48 AUDIO
    TITLE "12:cjc026_11642"
    INDEX 01 00:42:33
  TRACK 49 AUDIO
    TITLE "0:"
    INDEX 01 00:43:50
  TRACK 50 AUDIO
    TITLE "10:cjc026_11643"
    INDEX 01 00:44:12
  TRACK 51 AUDIO
    TITLE "0:"
    INDEX 01 00:45:29
  TRACK 52 AUDIO
    TITLE "11:cjc026_11644"
    INDEX 01 00:45:64
  TRACK 53 AUDIO
    TITLE "0:"
    INDEX 01 00:46:70
  TRACK 54 AUDIO
    TITLE "12:cjc026_11645"
    INDEX 01 00:47:30
  TRACK 55 AUDIO
    TITLE "0:"
    INDEX 01 00:48:47
  TRACK 56 AUDIO
    TITLE "10:cjc026_11646"
    INDEX 01 00:49:07
  TRACK 57 AUDIO
    TITLE "0:"
    INDEX 01 00:50:40
  TRACK 58 AUDIO
    TITLE "11:cjc026_11647"
    INDEX 01 00:51:03
  TRACK 59 AUDIO
    TITLE "0:"
    INDEX 01 00:52:25
  TRACK 60 AUDIO
    TITLE "12:cjc026_11648"
    INDEX 01 00:52:60
  TRACK 61 AUDIO
    TITLE "0:"
    INDEX 01 00:54:18
  TRACK 62 AUDIO
    TITLE "10:cjc026_11649"
    INDEX 01 00:54:54
  TRACK 63 AUDIO
    TITLE "0:"
    INDEX 01 00:56:01
  TRACK 64 AUDIO
    TITLE "11:cjc026_11650"
    INDEX 01 00:56:36
  TRACK 65 AUDIO
    TITLE "0:"
    INDEX 01 00:57:66
  TRACK 66 AUDIO
    TITLE "12:cjc026_11651"
    INDEX 01 00:58:29
  TRACK 67 AUDIO
    TITLE "0:"
    INDEX 01 00:59:48
  TRACK 68 AUDIO
    TITLE "10:cjc026_11652"
    INDEX 01 01:00:11
  TRACK 69 AUDIO
    TITLE "0:"
    INDEX 01 01:01:47
  TRACK 70 AUDIO
    TITLE "11:cjc026_11653"
    INDEX 01 01:02:07
  TRACK 71 AUDIO
    TITLE "0:"
    INDEX 01 01:03:40
  TRACK 72 AUDIO
    TITLE "12:cjc026_11654"
    INDEX 01 01:04:00
  TRACK 73 AUDIO
    TITLE "0:"
    INDEX 01 01:05:36
  TRACK 74 AUDIO
    TITLE "10:cjc026_11655"
    INDEX 01 01:05:71
  TRACK 75 AUDIO
    TITLE "0:"
    INDEX 01 01:07:23
  TRACK 76 AUDIO
    TITLE "11:cjc026_11656"
    INDEX 01 01:07:61
  TRACK 77 AUDIO
    TITLE "0:"
    INDEX 01 01:09:11
  TRACK 78 AUDIO
    TITLE "12:cjc026_11657"
    INDEX 01 01:09:44
  TRACK 79 AUDIO
    TITLE "0:"
    INDEX 01 01:10:71
